<?xml version="1.0" encoding="UTF-8"?>
<!DOCTYPE svg PUBLIC "-//W3C//DTD SVG 1.1//EN" "http://www.w3.org/Graphics/SVG/1.1/DTD/svg11.dtd">
<svg xmlns="http://www.w3.org/2000/svg" version="1.1" width="97px" height="26px" style="shape-rendering:geometricPrecision; text-rendering:geometricPrecision; image-rendering:optimizeQuality; fill-rule:evenodd; clip-rule:evenodd" xmlns:xlink="http://www.w3.org/1999/xlink">
<g><path style="opacity:0.867" fill="#fefffe" d="M 5.5,-0.5 C 13.1667,-0.5 20.8333,-0.5 28.5,-0.5C 28.5,1.83333 28.5,4.16667 28.5,6.5C 22.1579,6.33379 15.8246,6.50046 9.5,7C 5.64971,10.9598 5.64971,14.9598 9.5,19C 13.1516,19.4986 16.8183,19.6653 20.5,19.5C 20.5,18.5 20.5,17.5 20.5,16.5C 18.8333,16.5 17.1667,16.5 15.5,16.5C 15.5,14.1667 15.5,11.8333 15.5,9.5C 19.8333,9.5 24.1667,9.5 28.5,9.5C 28.5,14.8333 28.5,20.1667 28.5,25.5C 20.8333,25.5 13.1667,25.5 5.5,25.5C 3.16667,23.8333 1.16667,21.8333 -0.5,19.5C -0.5,14.8333 -0.5,10.1667 -0.5,5.5C 1.16667,3.16667 3.16667,1.16667 5.5,-0.5 Z"/></g>
<g><path style="opacity:0.861" fill="#fefffe" d="M 30.5,-0.5 C 33.1667,-0.5 35.8333,-0.5 38.5,-0.5C 40.9286,5.36671 43.0953,11.3667 45,17.5C 46.9047,11.3667 49.0714,5.36671 51.5,-0.5C 54.1667,-0.5 56.8333,-0.5 59.5,-0.5C 56.5,8.16667 53.5,16.8333 50.5,25.5C 46.8333,25.5 43.1667,25.5 39.5,25.5C 36.5,16.8333 33.5,8.16667 30.5,-0.5 Z"/></g>
<g><path style="opacity:0.881" fill="#fefffe" d="M 64.5,-0.5 C 72.5,-0.5 80.5,-0.5 88.5,-0.5C 88.5,1.83333 88.5,4.16667 88.5,6.5C 81.4684,6.16967 74.4684,6.503 67.5,7.5C 67.7093,8.08605 68.0426,8.58605 68.5,9C 74.8838,9.20587 81.2171,9.70587 87.5,10.5C 90.4038,15.7788 90.0705,20.7788 86.5,25.5C 78.1667,25.5 69.8333,25.5 61.5,25.5C 61.5,23.5 61.5,21.5 61.5,19.5C 68.5,19.5 75.5,19.5 82.5,19.5C 82.5,18.1667 82.5,16.8333 82.5,15.5C 76.4908,15.6662 70.4908,15.4995 64.5,15C 59.2215,9.83607 59.2215,4.6694 64.5,-0.5 Z"/></g>
<g><path style="opacity:0.322" fill="#fefffe" d="M 91.5,-0.5 C 92.8333,-0.5 94.1667,-0.5 95.5,-0.5C 95.5,0.166667 95.8333,0.5 96.5,0.5C 96.5,2.16667 96.5,3.83333 96.5,5.5C 91.0738,6.41606 89.4071,4.41606 91.5,-0.5 Z"/></g>
</svg>
