<?xml version="1.0" encoding="UTF-8"?>
<!DOCTYPE svg PUBLIC "-//W3C//DTD SVG 1.1//EN" "http://www.w3.org/Graphics/SVG/1.1/DTD/svg11.dtd">
<svg xmlns="http://www.w3.org/2000/svg" version="1.1" width="144px" height="144px" style="shape-rendering:geometricPrecision; text-rendering:geometricPrecision; image-rendering:optimizeQuality; fill-rule:evenodd; clip-rule:evenodd" xmlns:xlink="http://www.w3.org/1999/xlink">
<g><path style="opacity:0.004" fill="#284267" d="M 59.5,3.5 C 60.8333,4.16667 60.8333,4.16667 59.5,3.5 Z"/></g>
<g><path style="opacity:0.607" fill="#294368" d="M 123.5,38.5 C 123.068,39.7095 122.401,40.7095 121.5,41.5C 120.762,39.2398 119.762,39.0731 118.5,41C 119.044,41.7172 119.711,42.2172 120.5,42.5C 119.081,42.6389 117.748,43.1389 116.5,44C 117.253,45.487 118.086,45.6537 119,44.5C 120.222,48.6096 121.722,52.6096 123.5,56.5C 128.599,57.6512 133.599,58.9845 138.5,60.5C 139.833,67.8333 139.833,75.1667 138.5,82.5C 133.599,84.0155 128.599,85.3488 123.5,86.5C 121.722,90.3904 120.222,94.3904 119,98.5C 118.086,97.3463 117.253,97.513 116.5,99C 117.572,100.284 118.905,100.617 120.5,100C 118.343,101.085 118.176,102.251 120,103.5C 121.744,100.882 122.911,101.215 123.5,104.5C 122.711,104.783 122.044,105.283 121.5,106C 123.108,106.469 124.775,107.135 126.5,108C 126.612,110.17 126.278,112.336 125.5,114.5C 125.167,113.167 124.833,113.167 124.5,114.5C 123.833,114.5 123.5,114.833 123.5,115.5C 122.833,115.5 122.5,115.833 122.5,116.5C 121.833,116.5 121.5,116.833 121.5,117.5C 120.833,117.5 120.5,117.833 120.5,118.5C 119.833,118.5 119.5,118.833 119.5,119.5C 118.833,119.5 118.5,119.833 118.5,120.5C 117.833,120.5 117.5,120.833 117.5,121.5C 116.833,121.5 116.5,121.833 116.5,122.5C 115.833,122.5 115.5,122.833 115.5,123.5C 114.833,123.5 114.5,123.833 114.5,124.5C 113.833,124.5 113.5,124.833 113.5,125.5C 111.58,126.279 109.747,126.613 108,126.5C 107.135,124.775 106.469,123.108 106,121.5C 105.283,122.044 104.783,122.711 104.5,123.5C 103.833,122.833 103.167,122.167 102.5,121.5C 102.167,120.167 101.833,120.167 101.5,121.5C 99.9855,120.049 99.1522,118.382 99,116.5C 97.7964,117.471 97.2964,118.471 97.5,119.5C 96.1575,118.098 95.3242,118.431 95,120.5C 94.6667,120.167 94.3333,119.833 94,119.5C 91.6174,121.955 88.9507,122.955 86,122.5C 85.2401,126.819 84.5735,131.152 84,135.5C 83.7216,136.416 83.2216,137.082 82.5,137.5C 82.1667,136.167 81.8333,136.167 81.5,137.5C 80.1667,137.833 80.1667,138.167 81.5,138.5C 75.013,139.654 68.3464,139.821 61.5,139C 62.6537,138.086 62.487,137.253 61,136.5C 59.984,137.634 59.3173,137.301 59,135.5C 58.2646,131.187 57.7646,126.853 57.5,122.5C 55.7988,122.034 54.2988,122.034 53,122.5C 51.4878,121.743 50.1545,120.743 49,119.5C 47.984,120.634 47.3173,120.301 47,118.5C 46.586,118.957 46.086,119.291 45.5,119.5C 45.7036,118.471 45.2036,117.471 44,116.5C 43.8478,118.382 43.0145,120.049 41.5,121.5C 41.1667,120.167 40.8333,120.167 40.5,121.5C 39.8333,122.167 39.1667,122.833 38.5,123.5C 38.2172,122.711 37.7172,122.044 37,121.5C 36.5313,123.108 35.8646,124.775 35,126.5C 33.2532,126.613 31.4199,126.279 29.5,125.5C 25.8704,121.369 22.037,117.369 18,113.5C 17.6667,113.833 17.3333,114.167 17,114.5C 16.7922,112.141 16.6256,109.974 16.5,108C 17.5358,106.383 18.7025,106.216 20,107.5C 21.8241,106.251 21.6574,105.085 19.5,104C 20.2893,100.903 21.456,100.736 23,103.5C 24.8241,102.251 24.6574,101.085 22.5,100C 24.0948,100.617 25.4281,100.284 26.5,99C 25.7471,97.513 24.9138,97.3463 24,98.5C 22.7779,94.3904 21.2779,90.3904 19.5,86.5C 14.401,85.3488 9.40096,84.0155 4.5,82.5C 3.16667,75.1667 3.16667,67.8333 4.5,60.5C 9.40096,58.9845 14.401,57.6512 19.5,56.5C 21.2779,52.6096 22.7779,48.6096 24,44.5C 24.9138,45.6537 25.7471,45.487 26.5,44C 25.4281,42.7163 24.0948,42.3829 22.5,43C 24.6574,41.9153 24.8241,40.7487 23,39.5C 21.456,42.2636 20.2893,42.0969 19.5,39C 21.9915,36.6806 21.6582,35.8473 18.5,36.5C 17.6919,36.1924 17.0253,35.6924 16.5,35C 16.6256,33.0257 16.7922,30.859 17,28.5C 17.3333,28.8333 17.6667,29.1667 18,29.5C 22.3777,24.7865 27.0444,20.4532 32,16.5C 33.15,17.4239 34.15,17.4239 35,16.5C 35.8646,18.2251 36.5313,19.8917 37,21.5C 38.6852,19.0122 40.0186,19.3455 41,22.5C 41.3333,22.1667 41.6667,21.8333 42,21.5C 42.8646,23.2251 43.5313,24.8917 44,26.5C 45.2036,25.5294 45.7036,24.5294 45.5,23.5C 46.8425,24.9023 47.6758,24.5689 48,22.5C 48.3333,22.8333 48.6667,23.1667 49,23.5C 50.1545,22.2567 51.4878,21.2567 53,20.5C 54.3333,20.5 55.6667,20.5 57,20.5C 57.632,15.3986 58.632,10.3986 60,5.5C 60.9138,6.65367 61.7471,6.48701 62.5,5C 62.1667,4.66667 61.8333,4.33333 61.5,4C 68.1667,3.33333 74.8333,3.33333 81.5,4C 80.3463,4.9138 80.513,5.74714 82,6.5C 83.016,5.36589 83.6827,5.69923 84,7.5C 84.5735,11.8477 85.2401,16.181 86,20.5C 88.9507,20.0453 91.6174,21.0453 94,23.5C 95.016,22.3659 95.6827,22.6992 96,24.5C 96.414,24.0426 96.914,23.7093 97.5,23.5C 97.2964,24.5294 97.7964,25.5294 99,26.5C 99.4687,24.8917 100.135,23.2251 101,21.5C 102.558,22.3452 103.558,21.6785 104,19.5C 106.319,21.9915 107.153,21.6582 106.5,18.5C 106.808,17.6919 107.308,17.0253 108,16.5C 109.32,16.799 110.82,16.9657 112.5,17C 116.667,21.1667 120.833,25.3333 125,29.5C 125.333,29.1667 125.667,28.8333 126,28.5C 126.208,30.859 126.374,33.0257 126.5,35C 124.775,35.8646 123.108,36.5313 121.5,37C 122.044,37.7172 122.711,38.2172 123.5,38.5 Z"/></g>
<g><path style="opacity:0.004" fill="#284167" d="M 82.5,3.5 C 83.8333,4.16667 83.8333,4.16667 82.5,3.5 Z"/></g>
<g><path style="opacity:1" fill="#aecbe1" d="M 78.5,9.5 C 75.8333,9.5 73.1667,9.5 70.5,9.5C 70.0019,14.1522 69.6686,18.8189 69.5,23.5C 66.4261,23.8726 63.4261,24.5392 60.5,25.5C 62.5768,20.1382 63.9101,14.4715 64.5,8.5C 69.3633,8.18054 74.03,8.51388 78.5,9.5 Z"/></g>
<g><path style="opacity:1" fill="#d1def1" d="M 78.5,9.5 C 79.4418,14.7081 80.4418,19.8748 81.5,25C 87.4186,26.1933 92.9186,28.3599 98,31.5C 102.323,28.5149 106.656,25.5149 111,22.5C 114.349,25.682 117.516,29.0154 120.5,32.5C 117.292,36.5378 114.292,40.7044 111.5,45C 114.51,50.1912 116.843,55.6912 118.5,61.5C 123.694,63.1503 129.027,64.1503 134.5,64.5C 134.5,69.1667 134.5,73.8333 134.5,78.5C 128.856,78.8911 123.356,79.8911 118,81.5C 116.807,87.4186 114.64,92.9186 111.5,98C 114.292,102.296 117.292,106.462 120.5,110.5C 117.516,113.985 114.349,117.318 111,120.5C 106.885,118.052 103.052,115.219 99.5,112C 98.5,111.333 97.5,111.333 96.5,112C 91.6643,114.946 86.4976,117.112 81,118.5C 79.921,123.468 79.0877,128.468 78.5,133.5C 76.076,133.808 73.7427,133.474 71.5,132.5C 70.2928,128.256 69.6261,123.923 69.5,119.5C 66.4261,119.127 63.4261,118.461 60.5,117.5C 54.9207,116.584 49.754,114.584 45,111.5C 41.8779,113.64 38.7113,115.64 35.5,117.5C 33.0365,115.539 30.7032,113.372 28.5,111C 31.6993,107.434 34.5326,103.6 37,99.5C 37.6667,98.1667 37.6667,96.8333 37,95.5C 34.7565,91.7774 33.0899,87.7774 32,83.5C 30.103,81.9837 27.9363,81.317 25.5,81.5C 22.2089,80.7428 18.8756,80.0761 15.5,79.5C 15.5,74.1667 15.5,68.8333 15.5,63.5C 18.8756,62.9239 22.2089,62.2572 25.5,61.5C 26.1667,61.5 26.8333,61.5 27.5,61.5C 26.7929,64.7861 26.4595,68.1194 26.5,71.5C 27.8333,71.5 29.1667,71.5 30.5,71.5C 30.7499,58.4987 35.7499,47.6654 45.5,39C 44.4071,37.6346 43.0738,37.3013 41.5,38C 39.9586,39.3712 38.6253,40.8712 37.5,42.5C 33.9261,39.5373 30.9261,36.0373 28.5,32C 30.7032,29.6278 33.0365,27.4611 35.5,25.5C 38.7113,27.3598 41.8779,29.3598 45,31.5C 49.754,28.4156 54.9207,26.4156 60.5,25.5C 63.4261,24.5392 66.4261,23.8726 69.5,23.5C 69.6686,18.8189 70.0019,14.1522 70.5,9.5C 73.1667,9.5 75.8333,9.5 78.5,9.5 Z"/></g>
<g><path style="opacity:1" fill="#afcde3" d="M 35.5,25.5 C 33.0365,27.4611 30.7032,29.6278 28.5,32C 30.9261,36.0373 33.9261,39.5373 37.5,42.5C 32.8628,48.1061 29.5294,54.4395 27.5,61.5C 26.8333,61.5 26.1667,61.5 25.5,61.5C 26.2086,55.5418 28.2086,50.0418 31.5,45C 28.7083,40.7044 25.7083,36.5378 22.5,32.5C 25.536,28.2751 29.2027,25.1084 33.5,23C 34.3805,23.7083 35.0472,24.5416 35.5,25.5 Z"/></g>
<g><path style="opacity:1" fill="#2f476d" d="M 50.5,31.5 C 51.9221,31.7496 52.9221,32.583 53.5,34C 51.8421,35.6625 49.8421,36.4959 47.5,36.5C 47.31,34.0411 48.31,32.3745 50.5,31.5 Z"/></g>
<g><path style="opacity:0.004" fill="#284168" d="M 123.5,37.5 C 124.833,38.1667 124.833,38.1667 123.5,37.5 Z"/></g>
<g><path style="opacity:1" fill="#2f476d" d="M 27.5,61.5 C 29.5294,54.4395 32.8628,48.1061 37.5,42.5C 38.6253,40.8712 39.9586,39.3712 41.5,38C 43.0738,37.3013 44.4071,37.6346 45.5,39C 35.7499,47.6654 30.7499,58.4987 30.5,71.5C 29.1667,71.5 27.8333,71.5 26.5,71.5C 26.4595,68.1194 26.7929,64.7861 27.5,61.5 Z"/></g>
<g><path style="opacity:0.004" fill="#274168" d="M 121.5,41.5 C 120.833,42.1667 120.833,42.1667 121.5,41.5 Z"/></g>
<g><path style="opacity:0.004" fill="#284267" d="M 4.5,60.5 C 3.83333,59.1667 3.83333,59.1667 4.5,60.5 Z"/></g>
<g><path style="opacity:0.004" fill="#284268" d="M 138.5,59.5 C 139.833,60.1667 139.833,60.1667 138.5,59.5 Z"/></g>
<g><path style="opacity:1" fill="#accae1" d="M 15.5,63.5 C 15.5,68.8333 15.5,74.1667 15.5,79.5C 13.1944,79.0074 10.861,78.6741 8.5,78.5C 8.5,73.8333 8.5,69.1667 8.5,64.5C 10.861,64.3259 13.1944,63.9926 15.5,63.5 Z"/></g>
<g><path style="opacity:1" fill="#2e446a" d="M 62.5,34.5 C 85.2203,31.7444 100.387,41.0777 108,62.5C 111.227,85.2525 102.06,100.419 80.5,108C 57.7615,111.247 42.5948,102.08 35,80.5C 32.1487,57.8551 41.3154,42.5217 62.5,34.5 Z"/></g>
<g><path style="opacity:1" fill="#e67086" d="M 64.5,37.5 C 92.1661,36.6667 105.666,50.0001 105,77.5C 99.3922,98.0856 85.8922,107.252 64.5,105C 44.5269,98.9061 35.6936,85.4061 38,64.5C 41.682,50.3189 50.5154,41.3189 64.5,37.5 Z"/></g>
<g><path style="opacity:1" fill="#2f446a" d="M 67.5,44.5 C 85.3896,44.5597 95.723,53.3931 98.5,71C 96.6667,87.5 87.5,96.6667 71,98.5C 51.1643,95.1887 42.831,83.5221 46,63.5C 49.9482,53.3775 57.1149,47.0441 67.5,44.5 Z"/></g>
<g><path style="opacity:1" fill="#64a5d1" d="M 69.5,48.5 C 55.7985,56.7719 51.9652,68.4386 58,83.5C 61.0703,88.0727 64.9036,91.7393 69.5,94.5C 53.5553,91.3751 46.722,81.7084 49,65.5C 52.3865,55.6087 59.2198,49.942 69.5,48.5 Z"/></g>
<g><path style="opacity:1" fill="#73b2e6" d="M 69.5,48.5 C 89.3999,50.2401 97.2332,60.9067 93,80.5C 88.3171,90.4258 80.4838,95.0924 69.5,94.5C 64.9036,91.7393 61.0703,88.0727 58,83.5C 51.9652,68.4386 55.7985,56.7719 69.5,48.5 Z"/></g>
<g><path style="opacity:1" fill="#2f496f" d="M 67.5,58.5 C 81.0263,58.1826 86.193,64.516 83,77.5C 77.8788,84.7115 71.3788,86.2115 63.5,82C 55.8722,72.55 57.2056,64.7167 67.5,58.5 Z"/></g>
<g><path style="opacity:1" fill="#bec3d7" d="M 67.5,62.5 C 75.1602,60.9902 79.8269,63.9902 81.5,71.5C 79.8271,79.1726 75.1605,82.006 67.5,80C 62.8451,77.1034 61.3451,72.9367 63,67.5C 64.025,65.313 65.525,63.6464 67.5,62.5 Z"/></g>
<g><path style="opacity:1" fill="#b1cfe5" d="M 25.5,81.5 C 27.9363,81.317 30.103,81.9837 32,83.5C 33.0899,87.7774 34.7565,91.7774 37,95.5C 37.6667,96.8333 37.6667,98.1667 37,99.5C 34.5326,103.6 31.6993,107.434 28.5,111C 30.7032,113.372 33.0365,115.539 35.5,117.5C 34.8549,118.812 33.8549,119.812 32.5,120.5C 29.0154,117.516 25.682,114.349 22.5,111C 25.5149,106.656 28.5149,102.323 31.5,98C 28.2147,92.9782 26.2147,87.4782 25.5,81.5 Z"/></g>
<g><path style="opacity:0.004" fill="#284167" d="M 4.5,82.5 C 3.83333,83.1667 3.83333,83.1667 4.5,82.5 Z"/></g>
<g><path style="opacity:0.004" fill="#274167" d="M 138.5,82.5 C 139.833,83.1667 139.833,83.1667 138.5,82.5 Z"/></g>
<g><path style="opacity:0.004" fill="#284268" d="M 123.5,104.5 C 124.833,105.167 124.833,105.167 123.5,104.5 Z"/></g>
<g><path style="opacity:0.004" fill="#284167" d="M 124.5,114.5 C 124.833,114.5 125.167,114.5 125.5,114.5C 125.315,115.17 124.981,115.17 124.5,114.5 Z"/></g>
<g><path style="opacity:0.004" fill="#284167" d="M 123.5,115.5 C 123.833,115.5 124.167,115.5 124.5,115.5C 124.315,116.17 123.981,116.17 123.5,115.5 Z"/></g>
<g><path style="opacity:0.004" fill="#284267" d="M 122.5,116.5 C 122.833,116.5 123.167,116.5 123.5,116.5C 123.315,117.17 122.981,117.17 122.5,116.5 Z"/></g>
<g><path style="opacity:0.004" fill="#284267" d="M 121.5,117.5 C 121.833,117.5 122.167,117.5 122.5,117.5C 122.315,118.17 121.981,118.17 121.5,117.5 Z"/></g>
<g><path style="opacity:1" fill="#b0cde3" d="M 60.5,117.5 C 63.4261,118.461 66.4261,119.127 69.5,119.5C 69.6261,123.923 70.2928,128.256 71.5,132.5C 73.7427,133.474 76.076,133.808 78.5,133.5C 74.03,134.486 69.3633,134.819 64.5,134.5C 64.0013,130.51 63.5013,126.51 63,122.5C 62.6655,120.497 61.8321,118.83 60.5,117.5 Z"/></g>
<g><path style="opacity:0.004" fill="#284267" d="M 120.5,118.5 C 120.833,118.5 121.167,118.5 121.5,118.5C 121.315,119.17 120.981,119.17 120.5,118.5 Z"/></g>
<g><path style="opacity:0.004" fill="#284267" d="M 119.5,119.5 C 119.833,119.5 120.167,119.5 120.5,119.5C 120.315,120.17 119.981,120.17 119.5,119.5 Z"/></g>
<g><path style="opacity:0.004" fill="#284167" d="M 118.5,120.5 C 118.833,120.5 119.167,120.5 119.5,120.5C 119.315,121.17 118.981,121.17 118.5,120.5 Z"/></g>
<g><path style="opacity:0.004" fill="#274168" d="M 40.5,121.5 C 40.8333,121.5 41.1667,121.5 41.5,121.5C 41.3147,122.17 40.9813,122.17 40.5,121.5 Z"/></g>
<g><path style="opacity:0.004" fill="#274267" d="M 101.5,121.5 C 101.833,121.5 102.167,121.5 102.5,121.5C 102.315,122.17 101.981,122.17 101.5,121.5 Z"/></g>
<g><path style="opacity:0.004" fill="#284167" d="M 117.5,121.5 C 117.833,121.5 118.167,121.5 118.5,121.5C 118.315,122.17 117.981,122.17 117.5,121.5 Z"/></g>
<g><path style="opacity:0.004" fill="#284267" d="M 116.5,122.5 C 116.833,122.5 117.167,122.5 117.5,122.5C 117.315,123.17 116.981,123.17 116.5,122.5 Z"/></g>
<g><path style="opacity:0.004" fill="#294168" d="M 38.5,123.5 C 37.8333,124.167 37.8333,124.167 38.5,123.5 Z"/></g>
<g><path style="opacity:0.004" fill="#274268" d="M 104.5,123.5 C 105.833,124.167 105.833,124.167 104.5,123.5 Z"/></g>
<g><path style="opacity:0.004" fill="#284167" d="M 115.5,123.5 C 115.833,123.5 116.167,123.5 116.5,123.5C 116.315,124.17 115.981,124.17 115.5,123.5 Z"/></g>
<g><path style="opacity:0.004" fill="#284167" d="M 114.5,124.5 C 114.833,124.5 115.167,124.5 115.5,124.5C 115.315,125.17 114.981,125.17 114.5,124.5 Z"/></g>
<g><path style="opacity:0.004" fill="#284168" d="M 29.5,125.5 C 28.8333,126.167 28.8333,126.167 29.5,125.5 Z"/></g>
<g><path style="opacity:0.004" fill="#284267" d="M 113.5,125.5 C 113.833,125.5 114.167,125.5 114.5,125.5C 114.315,126.17 113.981,126.17 113.5,125.5 Z"/></g>
<g><path style="opacity:0.004" fill="#274168" d="M 81.5,137.5 C 81.8333,137.5 82.1667,137.5 82.5,137.5C 82.5,137.833 82.5,138.167 82.5,138.5C 82.1667,138.167 81.8333,137.833 81.5,137.5 Z"/></g>
<g><path style="opacity:0.004" fill="#284167" d="M 59.5,138.5 C 60.8333,139.167 60.8333,139.167 59.5,138.5 Z"/></g>
<g><path style="opacity:0.004" fill="#274267" d="M 82.5,138.5 C 83.8333,139.167 83.8333,139.167 82.5,138.5 Z"/></g>
</svg>
