<?xml version="1.0" encoding="UTF-8"?>
<!DOCTYPE svg PUBLIC "-//W3C//DTD SVG 1.1//EN" "http://www.w3.org/Graphics/SVG/1.1/DTD/svg11.dtd">
<svg xmlns="http://www.w3.org/2000/svg" version="1.1" width="192px" height="192px" style="shape-rendering:geometricPrecision; text-rendering:geometricPrecision; image-rendering:optimizeQuality; fill-rule:evenodd; clip-rule:evenodd" xmlns:xlink="http://www.w3.org/1999/xlink">
<g><path style="opacity:0.917" fill="#fdcb4d" d="M 77.5,-0.5 C 89.5,-0.5 101.5,-0.5 113.5,-0.5C 120.154,1.33829 126.821,3.50495 133.5,6C 137.924,7.93226 141.591,10.7656 144.5,14.5C 139.695,15.4872 134.695,15.8205 129.5,15.5C 129.047,14.5416 128.381,13.7083 127.5,13C 108.236,4.416 88.5698,3.416 68.5,10C 65.7339,11.371 63.4006,13.2043 61.5,15.5C 56.3054,15.8205 51.3054,15.4872 46.5,14.5C 49.4094,10.7656 53.0761,7.93226 57.5,6C 64.1791,3.50495 70.8457,1.33829 77.5,-0.5 Z"/></g>
<g><path style="opacity:1" fill="#f19110" d="M 129.5,15.5 C 106.833,15.5 84.1667,15.5 61.5,15.5C 63.4006,13.2043 65.7339,11.371 68.5,10C 88.5698,3.416 108.236,4.416 127.5,13C 128.381,13.7083 129.047,14.5416 129.5,15.5 Z"/></g>
<g><path style="opacity:0.987" fill="#256798" d="M 46.5,14.5 C 51.3054,15.4872 56.3054,15.8205 61.5,15.5C 84.1667,15.5 106.833,15.5 129.5,15.5C 134.695,15.8205 139.695,15.4872 144.5,14.5C 154.816,14.8162 160.149,20.1495 160.5,30.5C 117.167,31.8333 73.8333,31.8333 30.5,30.5C 30.8505,20.1495 36.1838,14.8162 46.5,14.5 Z"/></g>
<g><path style="opacity:0.996" fill="#57aced" d="M 30.5,30.5 C 73.8333,31.8333 117.167,31.8333 160.5,30.5C 169.085,32.4384 172.418,37.7718 170.5,46.5C 170.5,66.8333 170.5,87.1667 170.5,107.5C 170.5,124.5 170.5,141.5 170.5,158.5C 152.671,159.332 134.671,159.832 116.5,160C 110.5,166 104.5,172 98.5,178C 96.5,178.667 94.5,178.667 92.5,178C 86.5,172 80.5,166 74.5,160C 56.3287,159.832 38.3287,159.332 20.5,158.5C 20.5,141.5 20.5,124.5 20.5,107.5C 20.5,87.1667 20.5,66.8333 20.5,46.5C 18.5816,37.7718 21.915,32.4384 30.5,30.5 Z"/></g>
<g><path style="opacity:0.971" fill="#ffac32" d="M 20.5,46.5 C 20.5,66.8333 20.5,87.1667 20.5,107.5C 14.2515,108.718 10.2515,106.384 8.5,100.5C 9.30192,99.0484 9.80192,97.3817 10,95.5C 10.7067,80.8174 10.54,66.1507 9.5,51.5C 9.91563,49.2475 11.249,47.7475 13.5,47C 15.8098,46.5034 18.1432,46.3367 20.5,46.5 Z"/></g>
<g><path style="opacity:0.972" fill="#ffac32" d="M 170.5,46.5 C 172.857,46.3367 175.19,46.5034 177.5,47C 179.751,47.7475 181.084,49.2475 181.5,51.5C 180.46,66.1507 180.293,80.8174 181,95.5C 181.198,97.3817 181.698,99.0484 182.5,100.5C 180.748,106.384 176.748,108.718 170.5,107.5C 170.5,87.1667 170.5,66.8333 170.5,46.5 Z"/></g>
<g><path style="opacity:1" fill="#fbfbfc" d="M 55.5,52.5 C 68.9681,51.6461 78.4681,57.3128 84,69.5C 85.8333,91.6667 75.6667,101.833 53.5,100C 38.1257,92.2022 33.6257,80.3688 40,64.5C 44.0197,58.9194 49.1864,54.9194 55.5,52.5 Z"/></g>
<g><path style="opacity:1" fill="#fbfafc" d="M 125.5,52.5 C 148.106,53.4486 156.94,64.7819 152,86.5C 145.681,98.4064 135.847,102.906 122.5,100C 106.969,91.74 102.802,79.5733 110,63.5C 114.162,58.1903 119.329,54.5236 125.5,52.5 Z"/></g>
<g><path style="opacity:0.967" fill="#f4900d" d="M 9.5,51.5 C 10.54,66.1507 10.7067,80.8174 10,95.5C 9.80192,97.3817 9.30192,99.0484 8.5,100.5C 8.78522,98.712 8.45189,97.0453 7.5,95.5C 4.12076,93.032 1.4541,90.032 -0.5,86.5C -0.5,80.1667 -0.5,73.8333 -0.5,67.5C 1.4541,63.968 4.12076,60.968 7.5,58.5C 8.16805,56.0312 8.83472,53.6979 9.5,51.5 Z"/></g>
<g><path style="opacity:0.968" fill="#f4900d" d="M 181.5,51.5 C 182.165,53.6979 182.832,56.0312 183.5,58.5C 186.879,60.968 189.546,63.968 191.5,67.5C 191.5,73.8333 191.5,80.1667 191.5,86.5C 189.546,90.032 186.879,93.032 183.5,95.5C 182.548,97.0453 182.215,98.712 182.5,100.5C 181.698,99.0484 181.198,97.3817 181,95.5C 180.293,80.8174 180.46,66.1507 181.5,51.5 Z"/></g>
<g><path style="opacity:1" fill="#de3447" d="M 56.5,62.5 C 72.2801,62.4216 77.7801,69.7549 73,84.5C 67.535,91.9272 60.7016,93.4272 52.5,89C 46.9473,84.3818 45.114,78.5485 47,71.5C 49.4301,67.5657 52.5967,64.5657 56.5,62.5 Z"/></g>
<g><path style="opacity:1" fill="#de3448" d="M 125.5,62.5 C 141.841,62.649 147.341,70.3156 142,85.5C 134.622,93.0618 126.955,93.3951 119,86.5C 112.787,76.1379 114.954,68.1379 125.5,62.5 Z"/></g>
<g><path style="opacity:1" fill="#f4f7f9" d="M 47.5,122.5 C 52.8333,122.5 58.1667,122.5 63.5,122.5C 63.5,131.167 63.5,139.833 63.5,148.5C 58.1667,148.5 52.8333,148.5 47.5,148.5C 47.5,139.833 47.5,131.167 47.5,122.5 Z"/></g>
<g><path style="opacity:1" fill="#cdd7de" d="M 63.5,122.5 C 67.1667,122.5 70.8333,122.5 74.5,122.5C 74.5,131.167 74.5,139.833 74.5,148.5C 70.8333,148.5 67.1667,148.5 63.5,148.5C 63.5,139.833 63.5,131.167 63.5,122.5 Z"/></g>
<g><path style="opacity:1" fill="#f4f7f9" d="M 74.5,122.5 C 79.8333,122.5 85.1667,122.5 90.5,122.5C 90.5,131.167 90.5,139.833 90.5,148.5C 85.1667,148.5 79.8333,148.5 74.5,148.5C 74.5,139.833 74.5,131.167 74.5,122.5 Z"/></g>
<g><path style="opacity:1" fill="#ccd6dd" d="M 90.5,122.5 C 93.8333,122.5 97.1667,122.5 100.5,122.5C 100.5,131.167 100.5,139.833 100.5,148.5C 97.1667,148.5 93.8333,148.5 90.5,148.5C 90.5,139.833 90.5,131.167 90.5,122.5 Z"/></g>
<g><path style="opacity:1" fill="#f4f7f9" d="M 100.5,122.5 C 105.833,122.5 111.167,122.5 116.5,122.5C 116.5,131.167 116.5,139.833 116.5,148.5C 111.167,148.5 105.833,148.5 100.5,148.5C 100.5,139.833 100.5,131.167 100.5,122.5 Z"/></g>
<g><path style="opacity:1" fill="#cdd7de" d="M 116.5,122.5 C 120.167,122.5 123.833,122.5 127.5,122.5C 127.5,131.167 127.5,139.833 127.5,148.5C 123.833,148.5 120.167,148.5 116.5,148.5C 116.5,139.833 116.5,131.167 116.5,122.5 Z"/></g>
<g><path style="opacity:1" fill="#f4f7f9" d="M 127.5,122.5 C 132.833,122.5 138.167,122.5 143.5,122.5C 143.5,131.167 143.5,139.833 143.5,148.5C 138.167,148.5 132.833,148.5 127.5,148.5C 127.5,139.833 127.5,131.167 127.5,122.5 Z"/></g>
<g><path style="opacity:1" fill="#c7d4de" d="M 47.5,122.5 C 47.5,131.167 47.5,139.833 47.5,148.5C 40.8111,146.82 37.1445,142.487 36.5,135.5C 37.1287,128.566 40.7954,124.233 47.5,122.5 Z"/></g>
<g><path style="opacity:1" fill="#c8d4de" d="M 143.5,122.5 C 154.809,126.791 157.309,134.124 151,144.5C 148.815,146.54 146.315,147.874 143.5,148.5C 143.5,139.833 143.5,131.167 143.5,122.5 Z"/></g>
<g><path style="opacity:0.982" fill="#3b88c3" d="M 20.5,158.5 C 38.3287,159.332 56.3287,159.832 74.5,160C 80.5,166 86.5,172 92.5,178C 94.5,178.667 96.5,178.667 98.5,178C 104.5,172 110.5,166 116.5,160C 134.671,159.832 152.671,159.332 170.5,158.5C 182.744,157.244 188.077,162.744 186.5,175C 186.463,178.553 186.13,182.053 185.5,185.5C 125.5,186.833 65.5,186.833 5.5,185.5C 4.0717,177.802 4.23837,170.136 6,162.5C 10.1655,158.973 14.9989,157.64 20.5,158.5 Z"/></g>
</svg>
